# xmcd
#
# Track frame offsets:
#	150
#	21344
#	44578
#	59566
#	83349
#	100278
#	114873
#	131048
#	152138
#	169182
#	193907
#	210594
#
# Disc length: 3010 seconds
#
# Revision: 0
# Processed by: cddbd v1.5PL3 Copyright (c) Steve Scherf et al.
# Submitted via: audiograbber 1.83.01
#
DISCID=a40bc00c
DTITLE=Jake Jewell - Lonley Nights
DYEAR=1998
DGENRE=Blues
TTITLE0=Lonley Nights
TTITLE1=A New Way To Sing The Blues
TTITLE2=Everyday I Have The Blues
TTITLE3=To Know You Is To Love You
TTITLE4=Woke Up This Morning
TTITLE5=Mojo Working
TTITLE6=You Don't Have To Go
TTITLE7=Hoochie Coochie man
TTITLE8=Sweet Home Chicago
TTITLE9=Long Distence Call
TTITLE10=Dust My Blues
TTITLE11=Talk In Your Sleep
EXTD=
EXTT0=
EXTT1=
EXTT2=
EXTT3=
EXTT4=
EXTT5=
EXTT6=
EXTT7=
EXTT8=
EXTT9=
EXTT10=
EXTT11=
PLAYORDER=
